<svg width="48" height="49" viewBox="0 0 48 49" fill="none" xmlns="http://www.w3.org/2000/svg">
<g clip-path="url(#clip0_964_18511)">
<g clip-path="url(#clip1_964_18511)">
<path opacity="0.15" d="M43.6503 14.25H4.35031C4.33231 14.25 4.32031 14.2619 4.32031 14.2796V19.6849C4.32031 23.2291 7.26031 26.1037 10.8783 26.1037C13.3203 26.1037 15.4503 24.7998 16.5843 22.8617C16.7583 22.5594 17.0883 22.3698 17.4423 22.3698C17.7963 22.3698 18.1203 22.5594 18.3003 22.8617C19.4283 24.7998 21.5583 26.1037 24.0003 26.1037C26.4483 26.1037 28.5843 24.7938 29.7063 22.8498C29.8803 22.5535 30.1983 22.3698 30.5403 22.3698H30.5763C30.9243 22.3698 31.2363 22.5535 31.4103 22.8498C32.5383 24.7938 34.6743 26.1037 37.1223 26.1037C40.7403 26.1037 43.6803 23.2291 43.6803 19.6849V14.2796C43.6803 14.2619 43.6683 14.25 43.6503 14.25Z" fill="#0D5C63"/>
<path d="M46.2 9.98885V2.39659C46.2 1.34754 45.342 0.5 44.28 0.5H3.72003C2.65804 0.5 1.80004 1.34754 1.80004 2.39659V9.98885C0.798037 10.0481 3.71756e-05 10.872 3.71756e-05 11.8795V19.6851C-0.00380525 21.1197 0.290253 22.5398 0.864037 23.8576C1.12204 24.4622 1.44004 25.0311 1.80004 25.5705V46.018C1.80004 47.0612 2.65804 47.9146 3.72003 47.9146H44.28C45.342 47.9146 46.2 47.0671 46.2 46.018V25.5705C46.5657 25.0298 46.879 24.4563 47.136 23.8576C47.706 22.536 48 21.1313 48 19.6851V11.8795C48 10.872 47.202 10.0481 46.2 9.98885ZM6.12003 4.76732H41.88V9.98293H6.12003V4.76732ZM27.84 43.6532H20.16V37.4834H27.84V43.6532ZM41.904 43.6532H31.68V35.5868C31.68 34.5378 30.822 33.6902 29.76 33.6902H18.24C17.178 33.6902 16.32 34.5378 16.32 35.5868V43.6532H6.12003V29.2985C6.29403 29.3814 6.47403 29.4644 6.66003 29.5355C7.99803 30.0927 9.42003 30.3712 10.884 30.3712C12.348 30.3712 13.764 30.0927 15.108 29.5355C15.936 29.1918 16.716 28.7532 17.43 28.2257C17.442 28.2198 17.454 28.2198 17.466 28.2257C18.1822 28.7554 18.9622 29.1954 19.788 29.5355C21.126 30.0927 22.548 30.3712 24.012 30.3712C25.476 30.3712 26.892 30.0927 28.236 29.5355C29.064 29.1918 29.844 28.7532 30.558 28.2257C30.57 28.2198 30.582 28.2198 30.594 28.2257C31.3102 28.7554 32.0902 29.1954 32.916 29.5355C34.254 30.0927 35.676 30.3712 37.14 30.3712C38.604 30.3712 40.02 30.0927 41.364 29.5355C41.544 29.4585 41.724 29.3814 41.904 29.2985V43.6532ZM43.68 19.6851C43.68 23.2294 40.74 26.1039 37.122 26.1039C34.674 26.1039 32.538 24.7941 31.41 22.8501C31.236 22.5537 30.924 22.37 30.576 22.37H30.54C30.198 22.37 29.88 22.5537 29.706 22.8501C29.1304 23.8417 28.2992 24.6652 27.297 25.2367C26.2948 25.8082 25.1572 26.1074 24 26.1039C21.558 26.1039 19.428 24.8 18.3 22.8619C18.12 22.5597 17.796 22.37 17.442 22.37C17.088 22.37 16.758 22.5597 16.584 22.8619C16.005 23.8498 15.1728 24.6695 14.1711 25.2387C13.1694 25.8078 12.0336 26.1062 10.878 26.1039C7.26003 26.1039 4.32003 23.2294 4.32003 19.6851V14.2799C4.32003 14.2621 4.33203 14.2502 4.35003 14.2502H43.65C43.668 14.2502 43.68 14.2621 43.68 14.2799V19.6851Z" fill="#0D5C63"/>
</g>
</g>
<defs>
<clipPath id="clip0_964_18511">
<rect width="48" height="48" fill="white" transform="translate(0 0.5)"/>
</clipPath>
<clipPath id="clip1_964_18511">
<rect width="48" height="47.4146" fill="white" transform="translate(0 0.5)"/>
</clipPath>
</defs>
</svg>
