<svg width="48" height="49" viewBox="0 0 48 49" fill="none" xmlns="http://www.w3.org/2000/svg">
<g clip-path="url(#clip0_964_18518)">
<path d="M29.1416 14.124H41.1395V17.5693H29.1416V14.124Z" fill="white"/>
<path d="M29.1416 22.7373H41.1395V26.1826H29.1416V22.7373Z" fill="white"/>
<path d="M29.1416 31.3506H41.1395V34.7959H29.1416V31.3506Z" fill="white"/>
<path d="M44.5674 5.51123H3.43187C2.52299 5.51214 1.65161 5.87542 1.00893 6.52135C0.366264 7.16727 0.00481376 8.04307 0.00390625 8.95655V39.9644C0.00481376 40.8779 0.366264 41.7537 1.00893 42.3996C1.65161 43.0455 2.52299 43.4088 3.43187 43.4097H44.5674C45.4761 43.4084 46.3472 43.0449 46.9898 42.3991C47.6324 41.7533 47.994 40.8777 47.9953 39.9644V8.95655C47.9944 8.04307 47.633 7.16727 46.9903 6.52135C46.3477 5.87542 45.4763 5.51214 44.5674 5.51123ZM3.43187 8.95655H22.2856V39.9644H3.43187V8.95655ZM25.7136 39.9644V8.95655H44.5674L44.5708 39.9644H25.7136Z" fill="white"/>
</g>
<defs>
<clipPath id="clip0_964_18518">
<rect width="48" height="37.92" fill="white" transform="translate(0 5.5)"/>
</clipPath>
</defs>
</svg>
